<?xml version="1.0" encoding="utf-8"?>
<!-- Generator: Adobe Illustrator 18.1.1, SVG Export Plug-In . SVG Version: 6.00 Build 0)  -->
<svg version="1.1" id="Layer_1" xmlns="http://www.w3.org/2000/svg" xmlns:xlink="http://www.w3.org/1999/xlink" x="0px" y="0px"
	 viewBox="0 0 47.4 341.1" enable-background="new 0 0 47.4 341.1" xml:space="preserve">
<path fill="#FFFFFF" d="M18.2,25.4h8.1c4.3,0,9.3-0.1,12.8-3.6c1.5-1.5,3.6-4.6,3.6-9.3c0-4.9-2.2-8-4.2-9.7C35.1,0,31.7,0,28.8,0
	H18.2h-2H0v25.4h16.1H18.2z M19.2,3h9.6c2.3,0,5.2,0,7.6,2.4c1.3,1.3,2.7,3.6,2.7,7c0,2.2-0.5,4.5-2,6.4c-2.7,3.5-6.7,3.6-9.9,3.6
	h-8V3z"/>
<path fill="#FFFFFF" d="M14.6,78.1h3.6V67.9h12.3l8.6,10.2h4.7l-9.4-10.7c1.7-0.3,6.8-1.1,6.8-7.2c0-3.1-1.4-4.7-2.3-5.4
	c-2.2-2-4.9-2-7.1-2.1H18.2v0H0V78L14.6,78.1L14.6,78.1z M32.1,55.7c1.7,0,3.5,0,4.6,1.9c0.5,0.8,0.8,1.7,0.8,2.7
	c0,0.9-0.2,1.9-0.9,2.7c-1.4,1.9-4,1.9-5.9,1.9H18.2v-9.2H32.1z"/>
<path fill="#FFFFFF" d="M14.6,235.9h3.6v-10.2h12.3l8.6,10.2h4.7l-9.4-10.7c1.7-0.3,6.8-1.1,6.8-7.2c0-3.1-1.4-4.7-2.3-5.4
	c-2.2-2-4.9-2-7.1-2.1H18.2v0H0v25.4L14.6,235.9L14.6,235.9z M32.1,213.5c1.7,0,3.5,0,4.6,1.9c0.5,0.8,0.8,1.7,0.8,2.7
	c0,0.9-0.2,1.9-0.9,2.7c-1.4,1.9-4,1.9-5.9,1.9H18.2v-9.2H32.1z"/>
<path fill="#FFFFFF" d="M41.3,323.2c0-3.1-1.4-4.7-2.3-5.4c-2.2-2-4.9-2-7.1-2.1H18.2v0H0v25.4h14.6v0h3.6v-10.2h12.3l8.6,10.2h4.7
	l-9.4-10.7C36.1,330.1,41.3,329.2,41.3,323.2z M18.2,327.9v-9.2h14c1.7,0,3.5,0,4.6,1.9c0.5,0.8,0.8,1.7,0.8,2.7
	c0,0.9-0.2,1.9-0.9,2.7c-1.4,1.9-4,1.9-5.9,1.9H18.2z"/>
<polygon fill="#FFFFFF" points="18.1,130.7 18.2,130.7 18.2,122.7 27.2,117 38.7,130.7 43.5,130.7 30.1,114.8 43,105.2 37.7,105.2 
	18.2,118.8 18.2,105.2 15.8,105.2 15.8,105.2 0,105.2 0,130.7 15.8,130.7 "/>
<polygon fill="#FFFFFF" points="0.1,278.4 20.2,278.4 20.2,288.5 23.8,288.5 23.8,278.4 44,278.4 44,263 0.1,263 "/>
<path fill="#FFFFFF" d="M15.9,183.3H20c0,0,7.2-19.9,7.5-21.8c0.4,2,7.5,21.8,7.5,21.8h4l8.4-25.4h-3.8c0,0-6.4,20.4-6.6,22
	c-0.3-1.2-7.8-22-7.8-22H26c0,0-7,18.9-7.8,21.9v-21.9H0v25.4L15.9,183.3L15.9,183.3z"/>
</svg>
